PathFileType	4	(x/y/z)	TRC_MarkerData\Calibration\Standing_Cal_SL_Passive0001.trc
DataRate	CameraRate	NumFrames	NumMarkers	Units	OrigDataRate	OrigDataStartFrame	OrigNumFrames
240	240	10	50	mm	240	1501	2400
Frame#	Time	R_AC			L_AC			HEAD			STERN			C7			L_IC			R_IC			L_ASIS			R_ASIS			L_GT			R_GT			L_PSIS			R_PSIS			SACRAL			L_LAT_KNEE			L_MED_KNEE			R_LAT_KNEE			R_MED_KNEE			L_LAT_ANK			L_MED_ANK			R_LAT_ANK			R_MED_ANK			L_THIGH_PROX_POST			L_THIGH_PROX_ANT			L_THIGH_DIST_ANT			L_THIGH_DIST_POST			R_THIGH_PROX_POST			R_THIGH_PROX_ANT			R_THIGH_DIST_ANT			R_THIGH_DIST_POST			L_SHANK_PROX_POST			L_SHANK_PROX_ANT			L_SHANK_DIST_ANT			L_SHANK_DIST_POST			R_SHANK_PROX_POST			R_SHANK_PROX_ANT			R_SHANK_DIST_ANT			R_SHANK_DIST_POST			L_HEEL_LAT			L_HEEL_SUP			L_HEEL_MED			R_HEEL_LAT			R_HEEL_SUP			R_HEEL_MED			L_1ST_MET			L_5TH_MET			L_TOE			R_1ST_MET			R_5TH_MET			R_TOE			
		X1	Y1	Z1	X2	Y2	Z2	X3	Y3	Z3	X4	Y4	Z4	X5	Y5	Z5	X6	Y6	Z6	X7	Y7	Z7	X8	Y8	Z8	X9	Y9	Z9	X10	Y10	Z10	X11	Y11	Z11	X12	Y12	Z12	X13	Y13	Z13	X14	Y14	Z14	X15	Y15	Z15	X16	Y16	Z16	X17	Y17	Z17	X18	Y18	Z18	X19	Y19	Z19	X20	Y20	Z20	X21	Y21	Z21	X22	Y22	Z22	X23	Y23	Z23	X24	Y24	Z24	X25	Y25	Z25	X26	Y26	Z26	X27	Y27	Z27	X28	Y28	Z28	X29	Y29	Z29	X30	Y30	Z30	X31	Y31	Z31	X32	Y32	Z32	X33	Y33	Z33	X34	Y34	Z34	X35	Y35	Z35	X36	Y36	Z36	X37	Y37	Z37	X38	Y38	Z38	X39	Y39	Z39	X40	Y40	Z40	X41	Y41	Z41	X42	Y42	Z42	X43	Y43	Z43	X44	Y44	Z44	X45	Y45	Z45	X46	Y46	Z46	X47	Y47	Z47	X48	Y48	Z48	X49	Y49	Z49	X50	Y50	Z50	

1501	6.2526	553.9	1583.4	478.82	552.21	1607.3	177.22	672.32	1856.7	339.07	679.23	1532.2	331.32	530.04	1599.6	330.78	599.89	1133.6	150.82	616.68	1123.6	490.67	670.15	1056.2	178.03	676.85	1039.2	449.9	572.84	983.47	126.42	585.42	972.07	499.3	467.32	1076.6	274.22	479.43	1071.9	380.94	457.86	1052.8	329.25	581.22	573.33	125.77	605.55	567.88	260.02	531.76	559.34	498.59	555.85	541.25	373.99	490.55	129.03	105.98	494.03	126.35	184.47	467.25	96.141	485.18	504.93	116.22	391.41	543.15	830.56	132.08	607	822.28	118.45	604.44	746.29	123.89	541.66	756.15	137.6	544.31	807.85	504.74	610.84	801.3	513.11	597.74	727.57	508.55	530.25	733.76	498.4	583.17	519.29	128.35	626.92	529.78	138.93	624.01	479.42	140.66	574.33	465.54	129.38	433.96	408.07	490.06	498.86	415.15	517.86	503.16	340.64	514.64	439.08	331.61	489.42	426.53	53.672	105.15	417.81	76.89	142.36	427.48	43.631	172.02	408.79	39.375	452.92	404.86	65.804	416.9	426.06	39.002	387.86	655.24	48.38	186.54	633.22	48.234	82.545	706.1	58.228	160.96	654.32	50.318	427.78	605.34	33.421	530.21	688.88	57.101	484.43
1502	6.2568	553.9	1583.4	478.83	552.2	1607.3	177.24	672.33	1856.7	339.09	679.23	1532.2	331.32	530.03	1599.6	330.79	599.89	1133.6	150.84	616.68	1123.6	490.68	670.15	1056.2	178.04	676.85	1039.2	449.91	572.85	983.48	126.43	585.42	972.07	499.31	467.32	1076.6	274.23	479.43	1071.9	380.95	457.86	1052.8	329.26	581.23	573.33	125.77	605.55	567.88	260.02	531.75	559.34	498.6	555.85	541.25	373.99	490.55	129.03	105.98	494.03	126.35	184.47	467.25	96.142	485.18	504.93	116.22	391.42	543.16	830.56	132.09	607.01	822.28	118.46	604.45	746.3	123.89	541.66	756.16	137.61	544.3	807.85	504.75	610.83	801.3	513.12	597.74	727.57	508.56	530.24	733.76	498.41	583.17	519.3	128.35	626.93	529.78	138.93	624.01	479.42	140.67	574.33	465.54	129.38	433.96	408.07	490.06	498.86	415.15	517.87	503.16	340.64	514.64	439.08	331.61	489.42	426.53	53.674	105.16	417.81	76.893	142.36	427.47	43.634	172.02	408.79	39.378	452.92	404.86	65.807	416.9	426.06	39.004	387.86	655.24	48.379	186.54	633.22	48.235	82.546	706.1	58.228	160.96	654.33	50.315	427.78	605.34	33.42	530.22	688.88	57.097	484.43
1503	6.2609	553.9	1583.4	478.84	552.19	1607.3	177.25	672.34	1856.7	339.11	679.22	1532.2	331.33	530.03	1599.6	330.8	599.9	1133.6	150.85	616.68	1123.6	490.7	670.15	1056.2	178.06	676.85	1039.2	449.92	572.86	983.48	126.44	585.41	972.08	499.32	467.32	1076.6	274.23	479.42	1071.9	380.96	457.85	1052.8	329.27	581.23	573.33	125.78	605.55	567.87	260.03	531.75	559.34	498.6	555.85	541.25	374	490.55	129.03	105.98	494.03	126.35	184.47	467.25	96.143	485.18	504.94	116.22	391.42	543.17	830.56	132.1	607.01	822.28	118.47	604.45	746.31	123.89	541.67	756.17	137.62	544.29	807.86	504.76	610.82	801.3	513.13	597.73	727.57	508.57	530.23	733.76	498.41	583.17	519.3	128.36	626.93	529.79	138.94	624.02	479.42	140.67	574.33	465.54	129.39	433.95	408.07	490.06	498.85	415.16	517.87	503.15	340.64	514.64	439.07	331.61	489.42	426.53	53.676	105.16	417.81	76.896	142.36	427.47	43.637	172.02	408.79	39.383	452.92	404.86	65.809	416.9	426.06	39.007	387.86	655.25	48.378	186.54	633.22	48.235	82.546	706.1	58.227	160.96	654.33	50.313	427.78	605.34	33.42	530.22	688.89	57.094	484.42
1504	6.2651	553.9	1583.4	478.85	552.18	1607.3	177.26	672.34	1856.7	339.13	679.21	1532.3	331.33	530.02	1599.6	330.81	599.9	1133.6	150.86	616.69	1123.6	490.71	670.16	1056.2	178.07	676.84	1039.2	449.94	572.86	983.48	126.44	585.4	972.08	499.33	467.32	1076.6	274.24	479.42	1071.9	380.97	457.84	1052.8	329.28	581.24	573.33	125.78	605.55	567.87	260.03	531.74	559.34	498.61	555.84	541.26	374.01	490.56	129.03	105.98	494.03	126.36	184.47	467.26	96.145	485.18	504.94	116.22	391.42	543.17	830.56	132.1	607.02	822.29	118.48	604.45	746.32	123.89	541.68	756.17	137.63	544.28	807.86	504.77	610.81	801.31	513.14	597.72	727.58	508.58	530.22	733.76	498.42	583.17	519.31	128.36	626.93	529.79	138.94	624.02	479.43	140.68	574.34	465.55	129.39	433.95	408.07	490.07	498.84	415.16	517.87	503.15	340.64	514.64	439.07	331.61	489.42	426.53	53.678	105.16	417.81	76.898	142.36	427.47	43.639	172.02	408.79	39.387	452.92	404.86	65.812	416.9	426.06	39.009	387.86	655.25	48.377	186.54	633.22	48.235	82.547	706.1	58.227	160.96	654.33	50.311	427.78	605.34	33.419	530.22	688.89	57.09	484.42
1505	6.2693	553.9	1583.4	478.86	552.17	1607.3	177.27	672.35	1856.7	339.14	679.2	1532.3	331.34	530.02	1599.6	330.82	599.9	1133.6	150.87	616.69	1123.6	490.72	670.16	1056.2	178.08	676.84	1039.2	449.95	572.87	983.48	126.45	585.4	972.08	499.34	467.32	1076.6	274.25	479.42	1071.9	380.98	457.83	1052.8	329.28	581.24	573.34	125.79	605.55	567.87	260.04	531.73	559.34	498.61	555.84	541.26	374.01	490.56	129.03	105.98	494.03	126.36	184.47	467.26	96.146	485.18	504.94	116.22	391.42	543.18	830.56	132.11	607.02	822.29	118.49	604.45	746.34	123.89	541.68	756.18	137.64	544.27	807.86	504.77	610.8	801.31	513.15	597.71	727.58	508.59	530.2	733.76	498.42	583.18	519.31	128.37	626.94	529.8	138.94	624.02	479.43	140.68	574.34	465.55	129.4	433.94	408.06	490.07	498.83	415.16	517.87	503.14	340.64	514.63	439.07	331.61	489.42	426.53	53.679	105.16	417.81	76.901	142.36	427.47	43.642	172.02	408.79	39.392	452.92	404.87	65.815	416.9	426.06	39.012	387.86	655.25	48.376	186.54	633.22	48.235	82.547	706.1	58.227	160.96	654.33	50.309	427.78	605.35	33.418	530.22	688.89	57.087	484.42
1506	6.2734	553.9	1583.4	478.87	552.16	1607.3	177.27	672.35	1856.7	339.16	679.19	1532.3	331.34	530.01	1599.6	330.83	599.91	1133.6	150.88	616.7	1123.6	490.73	670.17	1056.2	178.1	676.84	1039.2	449.96	572.88	983.48	126.46	585.39	972.08	499.35	467.32	1076.6	274.25	479.42	1072	380.99	457.82	1052.8	329.29	581.25	573.34	125.79	605.55	567.87	260.04	531.73	559.34	498.62	555.83	541.26	374.02	490.56	129.04	105.99	494.03	126.36	184.47	467.26	96.148	485.18	504.94	116.22	391.42	543.19	830.57	132.12	607.03	822.29	118.5	604.45	746.35	123.89	541.69	756.19	137.65	544.26	807.86	504.78	610.79	801.31	513.16	597.7	727.58	508.6	530.19	733.76	498.43	583.18	519.32	128.37	626.94	529.8	138.95	624.03	479.43	140.69	574.35	465.55	129.41	433.93	408.06	490.07	498.82	415.16	517.87	503.14	340.64	514.63	439.07	331.61	489.42	426.53	53.68	105.16	417.82	76.904	142.36	427.47	43.644	172.02	408.79	39.398	452.91	404.87	65.818	416.9	426.06	39.015	387.86	655.25	48.375	186.54	633.22	48.235	82.548	706.1	58.226	160.96	654.33	50.308	427.77	605.35	33.418	530.22	688.89	57.083	484.42
1507	6.2776	553.9	1583.4	478.88	552.15	1607.3	177.28	672.36	1856.7	339.17	679.18	1532.3	331.35	530	1599.6	330.84	599.91	1133.6	150.9	616.71	1123.6	490.74	670.17	1056.2	178.11	676.84	1039.2	449.97	572.88	983.48	126.47	585.39	972.09	499.36	467.33	1076.6	274.26	479.42	1072	381	457.81	1052.8	329.3	581.25	573.34	125.8	605.55	567.87	260.05	531.72	559.34	498.62	555.83	541.26	374.02	490.56	129.04	105.99	494.03	126.37	184.47	467.26	96.15	485.18	504.95	116.23	391.42	543.2	830.57	132.13	607.04	822.29	118.51	604.45	746.36	123.89	541.7	756.2	137.66	544.25	807.87	504.79	610.78	801.31	513.17	597.69	727.59	508.61	530.18	733.75	498.43	583.18	519.32	128.38	626.94	529.8	138.95	624.03	479.43	140.69	574.35	465.55	129.41	433.93	408.06	490.07	498.81	415.17	517.87	503.13	340.64	514.63	439.06	331.61	489.42	426.53	53.682	105.16	417.82	76.907	142.36	427.47	43.647	172.02	408.79	39.403	452.91	404.87	65.82	416.9	426.06	39.018	387.86	655.25	48.374	186.54	633.22	48.236	82.549	706.1	58.226	160.96	654.33	50.306	427.77	605.35	33.417	530.22	688.89	57.08	484.42
1508	6.2818	553.9	1583.4	478.88	552.14	1607.3	177.29	672.36	1856.7	339.19	679.18	1532.3	331.35	530	1599.6	330.85	599.92	1133.6	150.91	616.71	1123.6	490.76	670.18	1056.2	178.12	676.85	1039.2	449.98	572.89	983.48	126.48	585.39	972.09	499.36	467.33	1076.6	274.27	479.42	1072	381.01	457.79	1052.8	329.31	581.25	573.34	125.8	605.55	567.87	260.05	531.71	559.35	498.63	555.82	541.26	374.03	490.56	129.04	105.99	494.03	126.37	184.47	467.26	96.152	485.18	504.95	116.23	391.42	543.2	830.57	132.14	607.04	822.3	118.52	604.45	746.38	123.89	541.7	756.21	137.67	544.24	807.87	504.8	610.77	801.31	513.19	597.68	727.59	508.62	530.17	733.75	498.43	583.18	519.32	128.38	626.95	529.81	138.96	624.03	479.43	140.7	574.35	465.55	129.42	433.92	408.06	490.08	498.8	415.17	517.87	503.12	340.64	514.62	439.06	331.61	489.43	426.53	53.683	105.16	417.82	76.91	142.36	427.47	43.649	172.02	408.79	39.409	452.91	404.87	65.823	416.9	426.06	39.021	387.86	655.25	48.373	186.54	633.22	48.236	82.549	706.1	58.226	160.96	654.34	50.305	427.77	605.35	33.416	530.23	688.89	57.077	484.42
1509	6.286	553.89	1583.4	478.89	552.13	1607.3	177.3	672.37	1856.7	339.2	679.17	1532.3	331.36	529.99	1599.6	330.86	599.92	1133.6	150.92	616.72	1123.6	490.77	670.18	1056.2	178.14	676.85	1039.2	449.99	572.9	983.49	126.49	585.38	972.09	499.37	467.34	1076.6	274.28	479.42	1072	381.02	457.78	1052.8	329.32	581.26	573.34	125.81	605.55	567.87	260.06	531.7	559.35	498.63	555.82	541.26	374.04	490.56	129.04	105.99	494.03	126.37	184.47	467.26	96.154	485.18	504.95	116.23	391.42	543.21	830.57	132.15	607.05	822.3	118.53	604.45	746.39	123.89	541.71	756.22	137.69	544.23	807.87	504.81	610.76	801.31	513.2	597.67	727.59	508.63	530.16	733.75	498.44	583.19	519.33	128.39	626.95	529.81	138.96	624.04	479.43	140.71	574.35	465.55	129.42	433.91	408.06	490.08	498.79	415.17	517.87	503.12	340.64	514.62	439.06	331.61	489.43	426.53	53.684	105.16	417.82	76.914	142.36	427.47	43.651	172.02	408.79	39.415	452.91	404.87	65.826	416.9	426.06	39.024	387.86	655.25	48.372	186.54	633.22	48.236	82.55	706.1	58.225	160.96	654.34	50.303	427.77	605.35	33.415	530.23	688.89	57.073	484.42
1510	6.2901	553.89	1583.4	478.9	552.12	1607.3	177.3	672.37	1856.7	339.21	679.16	1532.3	331.36	529.98	1599.6	330.87	599.92	1133.6	150.93	616.73	1123.6	490.79	670.19	1056.2	178.15	676.85	1039.2	450.01	572.91	983.49	126.5	585.38	972.09	499.38	467.34	1076.6	274.29	479.43	1072	381.03	457.77	1052.8	329.33	581.26	573.34	125.81	605.56	567.87	260.06	531.69	559.35	498.64	555.81	541.27	374.04	490.56	129.04	105.99	494.03	126.38	184.48	467.27	96.156	485.18	504.95	116.23	391.42	543.22	830.57	132.16	607.05	822.3	118.54	604.46	746.4	123.89	541.72	756.23	137.7	544.22	807.87	504.81	610.76	801.31	513.21	597.66	727.59	508.64	530.15	733.75	498.44	583.19	519.33	128.39	626.95	529.81	138.97	624.04	479.43	140.71	574.36	465.55	129.43	433.9	408.06	490.08	498.78	415.18	517.87	503.11	340.65	514.62	439.05	331.61	489.43	426.53	53.686	105.16	417.82	76.917	142.36	427.47	43.652	172.02	408.79	39.422	452.91	404.88	65.828	416.9	426.06	39.027	387.86	655.26	48.372	186.54	633.22	48.237	82.551	706.1	58.225	160.96	654.34	50.302	427.77	605.35	33.414	530.23	688.89	57.07	484.42
